<?xml version="1.0" encoding="utf-8"?>
<!-- Generator: Adobe Adobe Illustrator 29.2.0, SVG Export Plug-In . SVG Version: 6.00 Build 0)  -->
<svg version="1.1" id="Layer_1" xmlns="http://www.w3.org/2000/svg" xmlns:xlink="http://www.w3.org/1999/xlink" x="0px" y="0px"
	 width="144px" height="144px" viewBox="0 0 144 144" style="enable-background:new 0 0 144 144;" xml:space="preserve">
<style type="text/css">
	.st0{fill:#4D2A7C;}
	.st1{fill:#8750A0;}
	.st2{fill:#381C55;}
	.st3{fill:#6F3996;}
	.st4{fill:#FFFFFF;}
</style>
<g>
	<path class="st0" d="M6.5,115.8v14.6c0,3.7,3,6.8,6.8,6.8h68.8v-21.4c6.3,0,11.4-5.1,11.4-11.4S88.4,93,82.1,93V67.1H50.6
		c0-6.3-5.1-11.4-11.4-11.4s-11.4,5.1-11.4,11.4H6.5V93"/>
	<path class="st1" d="M6.5,50.1v21.4h21.4c0-6.3,5.1-11.4,11.4-11.4s11.4,5.1,11.4,11.4h31.4V50.1c6.3,0,11.4-5.1,11.4-11.4
		s-5.1-11.4-11.4-11.4V5.9H13.2c-3.7,0-6.8,3-6.8,6.8v14.6"/>
	<path class="st2" d="M116.1,137.2h14.7c3.7,0,6.8-3,6.8-6.8V62h-21.4c0-6.3-5.1-11.4-11.4-11.4S93.3,55.7,93.3,62H71.9v31
		c6.3,0,11.4,5.1,11.4,11.4s-5.1,11.4-11.4,11.4v21.4h21.4"/>
	<path class="st3" d="M93.3,5.9H71.9v21.4c6.3,0,11.4,5.1,11.4,11.4s-5.1,11.4-11.4,11.4v21.4h21.4c0-6.3,5.1-11.4,11.4-11.4
		s11.4,5.1,11.4,11.4h21.4V12.7c0-3.7-3-6.8-6.8-6.8h-14.7"/>
</g>
<g>
	<path class="st4" d="M44.9,56.6L36,40.5h-2.5v16.1H23.2V14.1h17.4c3.4,0,6.2,0.6,8.6,1.8c2.4,1.2,4.1,2.8,5.3,4.8
		c1.2,2,1.8,4.3,1.8,6.8c0,2.8-0.8,5.4-2.4,7.6c-1.6,2.2-3.9,3.8-7.1,4.7l9.8,16.8H44.9z M33.6,33.2H40c1.9,0,3.3-0.5,4.3-1.4
		c0.9-0.9,1.4-2.2,1.4-3.9c0-1.6-0.5-2.9-1.4-3.8c-0.9-0.9-2.4-1.4-4.3-1.4h-6.4V33.2z"/>
</g>
<g>
	<path class="st4" d="M32,124.9c-2.5-1-4.4-2.5-5.9-4.5c-1.5-2-2.3-4.4-2.3-7.1h11c0.2,1.6,0.7,2.8,1.6,3.6c0.9,0.8,2.1,1.2,3.6,1.2
		c1.5,0,2.7-0.4,3.6-1.1c0.9-0.7,1.3-1.7,1.3-2.9c0-1-0.4-1.9-1.1-2.6c-0.7-0.7-1.6-1.3-2.6-1.7s-2.5-0.9-4.4-1.5
		c-2.7-0.8-5-1.7-6.7-2.5c-1.7-0.8-3.2-2.1-4.5-3.8c-1.3-1.7-1.9-3.8-1.9-6.5c0-4,1.4-7.1,4.3-9.3c2.9-2.2,6.6-3.4,11.2-3.4
		c4.7,0,8.5,1.1,11.3,3.4c2.9,2.2,4.4,5.4,4.6,9.4H44.1c-0.1-1.4-0.6-2.5-1.5-3.2c-0.9-0.8-2.1-1.2-3.6-1.2c-1.3,0-2.3,0.3-3,1
		c-0.8,0.7-1.2,1.6-1.2,2.9c0,1.4,0.6,2.4,1.9,3.2c1.3,0.8,3.3,1.6,6.1,2.5c2.7,0.9,5,1.8,6.7,2.7c1.7,0.8,3.2,2.1,4.5,3.7
		c1.3,1.6,1.9,3.7,1.9,6.2c0,2.4-0.6,4.6-1.8,6.6c-1.2,2-3,3.6-5.4,4.7c-2.3,1.2-5.1,1.8-8.3,1.8C37.2,126.4,34.4,125.9,32,124.9z"
		/>
</g>
<g>
	<path class="st4" d="M102.4,93.5v8.6h13.9v8h-13.9v9.3h15.7v8.3h-26V85.2h26v8.3H102.4z"/>
</g>
<g>
	<path class="st4" d="M109.9,14.1v42.5H99.6V14.1H109.9z"/>
</g>
</svg>
